<svg width="25" height="25" viewBox="0 0 25 25" fill="none" xmlns="http://www.w3.org/2000/svg">
<path d="M12.5304 15.7241C14.7533 15.7241 16.5212 13.9233 16.5212 11.6958C16.5212 9.46821 14.7204 7.66743 12.5304 7.66743C10.3076 7.66743 8.53961 9.46821 8.53961 11.6958C8.5021 13.9186 10.3076 15.7241 12.5304 15.7241ZM12.5304 8.90547C14.0686 8.90547 15.316 10.1576 15.316 11.6958C15.316 13.2339 14.0639 14.486 12.5304 14.486C10.9969 14.486 9.74014 13.2339 9.74014 11.6958C9.74014 10.1576 10.9922 8.90547 12.5304 8.90547ZM14.4672 16.9621H10.5983C7.5595 16.9621 5.09748 19.2741 5.09748 22.1253C5.09748 22.6974 5.58988 23.157 6.19953 23.157H18.8707C19.4803 23.157 19.9727 22.6974 19.9727 22.1253C19.9681 19.2741 17.506 16.9621 14.4672 16.9621ZM6.3449 21.919C6.46214 19.8509 8.32858 18.2002 10.5702 18.2002H14.4672C16.7416 18.2002 18.6081 19.8509 18.6925 21.919H6.3449ZM19.9681 9.52918C21.6797 9.52918 23.0678 8.14107 23.0678 6.42938C23.0678 4.7177 21.6797 3.32959 19.9681 3.32959C18.2564 3.32959 16.8683 4.7177 16.8683 6.42938C16.8683 8.14107 18.2564 9.52918 19.9681 9.52918ZM19.9681 4.57232C20.9951 4.57232 21.8251 5.40706 21.8251 6.42938C21.8251 7.45171 20.9904 8.28645 19.9681 8.28645C18.941 8.28645 18.111 7.45171 18.111 6.42938C18.111 5.40706 18.941 4.57232 19.9681 4.57232ZM5.09748 9.52918C6.80917 9.52918 8.19728 8.14107 8.19728 6.42938C8.19728 4.7177 6.80917 3.32959 5.09748 3.32959C3.38579 3.32959 1.99769 4.7177 1.99769 6.42938C1.99769 8.14107 3.38579 9.52918 5.09748 9.52918ZM5.09748 4.57232C6.12449 4.57232 6.95454 5.40706 6.95454 6.42938C6.95454 7.45171 6.1198 8.28645 5.09748 8.28645C4.07516 8.28645 3.24042 7.4564 3.24042 6.42938C3.24042 5.40237 4.07047 4.57232 5.09748 4.57232ZM21.8673 10.7672H19.3443C18.9129 10.7672 18.4908 10.8657 18.0875 11.0533C17.778 11.1987 17.6467 11.5691 17.7921 11.8786C17.9375 12.1882 18.3079 12.3195 18.6175 12.1741C18.8519 12.0662 19.0958 12.0053 19.3443 12.0053H21.8626C22.8334 12.0053 23.6775 12.8822 23.6775 13.9702V14.486C23.6775 14.8284 23.9542 15.1051 24.2965 15.1051C24.6388 15.1051 24.9155 14.8284 24.9155 14.486V13.9702C24.9249 12.2022 23.5556 10.7672 21.8673 10.7672ZM6.44338 12.1741C6.75289 12.3195 7.12337 12.1882 7.26874 11.8786C7.41412 11.5691 7.28281 11.1987 6.9733 11.0533C6.57 10.8657 6.14794 10.7672 5.71181 10.7672H3.19821C1.50997 10.7672 0.140625 12.2022 0.140625 13.9702V14.486C0.140625 14.8284 0.417309 15.1051 0.759646 15.1051C1.10198 15.1051 1.37867 14.8284 1.37867 14.486V13.9702C1.37867 12.8869 2.19465 12.0053 3.19352 12.0053H5.71181C5.96505 12.0053 6.2089 12.0615 6.44338 12.1741Z" fill="white"/>
</svg>
